<svg width="24" height="24" viewBox="0 0 24 24" fill="none" xmlns="http://www.w3.org/2000/svg">
<g clip-path="url(#clip0_33_1110)">
<path d="M21.5333 6.23333L17.3333 8.6V5.33333C17.3333 4.97971 17.1929 4.64057 16.9428 4.39052C16.6928 4.14048 16.3536 4 16 4H3.99999C3.29275 4 2.61447 4.28095 2.11438 4.78105C1.61428 5.28115 1.33333 5.95942 1.33333 6.66667V17.3333C1.33333 18.0406 1.61428 18.7189 2.11438 19.219C2.61447 19.719 3.29275 20 3.99999 20H16C16.3536 20 16.6928 19.8595 16.9428 19.6095C17.1929 19.3594 17.3333 19.0203 17.3333 18.6667V15.3867L21.5333 17.7533C21.6411 17.8237 21.7655 17.8645 21.894 17.8716C22.0225 17.8787 22.1506 17.8519 22.2655 17.7938C22.3803 17.7357 22.4779 17.6484 22.5483 17.5406C22.6187 17.4329 22.6595 17.3085 22.6667 17.18V6.8C22.6584 6.67205 22.6168 6.5485 22.546 6.44165C22.4751 6.33481 22.3775 6.24841 22.2628 6.19107C22.1481 6.13374 22.0204 6.10747 21.8924 6.11488C21.7644 6.1223 21.6406 6.16314 21.5333 6.23333Z" fill="black"/>
</g>
<defs>
<clipPath id="clip0_33_1110">
<rect width="24" height="24" fill="white"/>
</clipPath>
</defs>
</svg>
