<svg width="420" height="200" viewBox="0 0 420 200" fill="none" xmlns="http://www.w3.org/2000/svg">
<rect width="420" height="200" fill="#191A1C"/>
<g clip-path="url(#clip0_156_1284)">
<path d="M256.667 53.3333H163.333C161.565 53.3333 159.87 54.0357 158.619 55.2859C157.369 56.5362 156.667 58.2319 156.667 60V140C156.667 141.768 157.369 143.464 158.619 144.714C159.87 145.964 161.565 146.667 163.333 146.667H256.667C258.435 146.667 260.13 145.964 261.381 144.714C262.631 143.464 263.333 141.768 263.333 140V60C263.333 58.2319 262.631 56.5362 261.381 55.2859C260.13 54.0357 258.435 53.3333 256.667 53.3333ZM179.733 66.6666C181.711 66.6666 183.645 67.2531 185.289 68.352C186.934 69.4508 188.215 71.0126 188.972 72.8398C189.729 74.6671 189.927 76.6777 189.541 78.6175C189.155 80.5574 188.203 82.3392 186.804 83.7377C185.406 85.1362 183.624 86.0886 181.684 86.4745C179.744 86.8604 177.734 86.6623 175.906 85.9054C174.079 85.1486 172.517 83.8668 171.419 82.2223C170.32 80.5779 169.733 78.6445 169.733 76.6666C169.733 74.0145 170.787 71.4709 172.662 69.5956C174.538 67.7202 177.081 66.6666 179.733 66.6666ZM170 130V116.333L190 96.0666C190.625 95.4458 191.469 95.0973 192.35 95.0973C193.231 95.0973 194.075 95.4458 194.7 96.0666L203.333 104.5L177.733 130H170ZM250 130H187.167L207.933 109.233L225.933 91.2333C226.558 90.6125 227.403 90.264 228.283 90.264C229.164 90.264 230.009 90.6125 230.633 91.2333L250 110.6V130Z" fill="white" fill-opacity="0.1"/>
</g>
<defs>
<clipPath id="clip0_156_1284">
<rect width="120" height="120" fill="white" transform="translate(150 40)"/>
</clipPath>
</defs>
</svg>
